<svg xmlns="http://www.w3.org/2000/svg" viewBox="0 0 512 512"><path d="M256 0C115.39 0 0 115.39 0 256c0 119.988 84.195 228.984 196 256v-84.695c-11.078 2.425-21.273 2.496-32.55-.828-15.13-4.465-27.423-14.543-36.548-29.91-5.816-9.813-16.125-20.454-26.88-19.672l-2.635-29.883c23.254-1.992 43.37 14.168 55.312 34.23 5.304 8.922 11.41 14.153 19.245 16.465 7.575 2.23 15.707 1.16 25.184-2.187 2.378-18.973 11.07-26.075 17.636-36.075v-.015c-66.68-9.946-93.254-45.32-103.8-73.242-13.978-37.075-6.478-83.39 18.237-112.66.48-.57 1.348-2.063 1.012-3.106-11.332-34.23 2.476-62.547 2.984-65.55 13.077 3.866 15.202-3.892 56.808 21.386l7.19 4.32c3.01 1.793 2.064.77 5.072.543 17.37-4.718 35.683-7.323 53.726-7.557 18.18.234 36.375 2.84 54.465 7.75l2.33.234c-.204-.03.632-.15 2.034-.984 51.973-31.48 50.106-21.192 64.043-25.723.504 3.008 14.13 31.785 2.918 65.582-1.512 4.656 45.06 47.3 19.246 115.754-10.546 27.933-37.116 63.308-103.796 73.254v.015c8.547 13.028 18.817 19.957 18.762 46.832V512c111.81-27.016 196-136.012 196-256C512 115.39 396.61 0 256 0zm0 0"/></svg>