<svg xmlns="http://www.w3.org/2000/svg" viewBox="0 0 455.731 455.731"><path d="M0 0v455.73h455.73V0H0zm139.94 375.963c0 5.804-4.705 10.51-10.51 10.51H84.71c-5.804 0-10.51-4.706-10.51-10.51V185.18c0-5.804 4.706-10.51 10.51-10.51h44.72c5.805 0 10.51 4.706 10.51 10.51v190.783zM106.998 145.49c-20.308.412-38.155-16.55-38.15-38.187 0-20.985 17.28-38.105 38.407-38.088 20.873.017 38.088 17.257 38.043 38.234-.05 21.963-18.278 38.52-38.3 38.04zm279.886 236.663c0 2.41-1.954 4.363-4.364 4.362l-57.152-.014c-2.41 0-4.362-1.953-4.362-4.362V264.33c0-10.182-4.126-19.406-10.802-26.078-6.764-6.768-16.15-10.916-26.5-10.8-20.28.23-36.455 17.07-36.455 37.35v117.322c0 2.41-1.955 4.363-4.365 4.362l-57.01-.014c-2.41 0-4.362-1.954-4.362-4.362V179.034c0-2.41 1.953-4.363 4.363-4.363h55.795c2.41 0 4.364 1.954 4.364 4.364v23.418c.005-.01.225.018.6.075 1.077-1.95 2.25-3.84 3.52-5.658 11.627-16.69 30.96-27.607 52.84-27.607h11.47c39.997 0 72.42 32.423 72.42 72.42v140.47z"/></svg>