<svg xmlns="http://www.w3.org/2000/svg" viewBox="0 0 455 455"><path d="M0 0v455h455V0H0zm352.75 163.26c.124 2.772.187 5.56.187 8.36 0 85.402-65.002 183.875-183.873 183.875-36.496 0-70.466-10.697-99.065-29.037 5.055.6 10.198.907 15.416.907 30.278 0 58.143-10.33 80.262-27.668-28.28-.52-52.148-19.204-60.373-44.88 3.948.757 7.997 1.163 12.16 1.163 5.895 0 11.605-.794 17.028-2.268-29.563-5.94-51.84-32.057-51.84-63.368 0-.273 0-.544.005-.814 8.712 4.84 18.676 7.748 29.27 8.084-17.34-11.59-28.747-31.37-28.747-53.79 0-11.845 3.188-22.945 8.752-32.492 31.873 39.1 79.493 64.828 133.203 67.526-1.103-4.732-1.677-9.665-1.677-14.73 0-35.687 28.938-64.622 64.626-64.622 18.59 0 35.385 7.847 47.173 20.406 14.72-2.895 28.55-8.276 41.038-15.68-4.824 15.09-15.07 27.753-28.415 35.753 13.074-1.563 25.528-5.038 37.118-10.178-8.662 12.96-19.618 24.342-32.247 33.452z" fill-rule="evenodd" clip-rule="evenodd"/></svg>